<svg xmlns="http://www.w3.org/2000/svg" viewBox="0 0 84.24 84.24"><defs><style>.cls-1{fill:#82d1d1;}.cls-2{fill:#b2b6bb;}.cls-3,.cls-4,.cls-9{fill:none;}.cls-3,.cls-4,.cls-6,.cls-7,.cls-9{stroke:#000;stroke-width:2.71px;}.cls-3,.cls-4,.cls-7{stroke-linecap:round;}.cls-3,.cls-6,.cls-9{stroke-miterlimit:10;}.cls-4,.cls-7{stroke-linejoin:round;}.cls-5{fill:#f2d59c;}.cls-6{fill:#d16d6d;}.cls-7{fill:#ffe07d;}.cls-8{fill:#ad6647;}</style></defs><g id="Layer_2" data-name="Layer 2"><g id="Layer_1-2" data-name="Layer 1"><circle class="cls-1" cx="41.79" cy="42.22" r="40.77"/><circle class="cls-2" cx="42.56" cy="42.03" r="29.79"/><path class="cls-3" d="M49.34,71A29.84,29.84,0,0,1,12.92,45"/><path class="cls-3" d="M72.26,44.41a29.79,29.79,0,0,1-2.65,10.11"/><path class="cls-4" d="M24,5.57a40.87,40.87,0,1,1-8.45,5.6"/><path class="cls-5" d="M42.12,44.41H12.46a2,2,0,0,1-2-2.19,31.78,31.78,0,0,1,63.4,0,2,2,0,0,1-2,2.18Z"/><path class="cls-4" d="M42.12,44.41H12.46a2,2,0,0,1-2-2.19,31.78,31.78,0,0,1,63.4,0,2,2,0,0,1-2,2.18Z"/><path d="M22.54,28.38a1.45,1.45,0,1,0-1.45-1.45,1.48,1.48,0,0,0,1.45,1.45Z"/><path d="M34.71,20.55a1.45,1.45,0,1,0-1.44-1.45,1.46,1.46,0,0,0,1.44,1.45Z"/><path d="M42.66,28.87a1.45,1.45,0,1,0,0-2.9,1.45,1.45,0,1,0,0,2.9Z"/><path d="M64.9,33.47A1.45,1.45,0,1,0,63.45,32a1.47,1.47,0,0,0,1.45,1.45Z"/><path d="M64.9,39.46A1.45,1.45,0,1,0,63.45,38a1.47,1.47,0,0,0,1.45,1.45Z"/><path d="M54.71,40.8a1.45,1.45,0,1,0-1.45-1.45,1.48,1.48,0,0,0,1.45,1.45Z"/><path d="M30,41.42A1.45,1.45,0,1,0,28.55,40,1.46,1.46,0,0,0,30,41.42Z"/><path d="M17,39.93a1.45,1.45,0,1,0-1.45-1.45A1.48,1.48,0,0,0,17,39.93Z"/><circle class="cls-6" cx="32.55" cy="26.39" r="3.11"/><circle class="cls-6" cx="54.91" cy="25.23" r="3.11"/><circle class="cls-6" cx="44.93" cy="36.24" r="3.11"/><circle class="cls-6" cx="44.93" cy="36.24" r="3.11"/><circle class="cls-6" cx="23.04" cy="34.75" r="3.11"/><path class="cls-7" d="M32.35,54.51l9,8.22A12.17,12.17,0,1,1,23.38,46.29Z"/><line class="cls-4" x1="25.03" y1="62.51" x2="32.35" y2="54.51"/><line class="cls-4" x1="20.6" y1="55.09" x2="32.35" y2="54.51"/><line class="cls-4" x1="32.77" y1="66.65" x2="32.35" y2="54.51"/><circle class="cls-8" cx="55.15" cy="58.15" r="11.4"/><circle class="cls-9" cx="55.15" cy="58.15" r="11.4"/><path d="M49,58.86A1.45,1.45,0,1,0,49,56a1.45,1.45,0,1,0,0,2.89Z"/><path d="M54.31,65.4A1.46,1.46,0,0,0,55.76,64a1.48,1.48,0,0,0-1.45-1.45,1.45,1.45,0,1,0,0,2.89Z"/><path d="M55.84,59.21a1.45,1.45,0,1,0-1.45-1.45,1.47,1.47,0,0,0,1.45,1.45Z"/><path d="M54.31,54a1.46,1.46,0,0,0,1.45-1.45,1.48,1.48,0,0,0-1.45-1.45,1.45,1.45,0,1,0,0,2.9Z"/><path d="M61.26,56a1.45,1.45,0,1,0,0-2.89,1.45,1.45,0,1,0,0,2.89Z"/><path d="M60.27,63.67a1.45,1.45,0,1,0-1.45-1.45,1.47,1.47,0,0,0,1.45,1.45Z"/></g></g></svg>