<svg xmlns="http://www.w3.org/2000/svg" viewBox="0 0 84.59 74"><defs><style>.cls-1,.cls-8{fill:#a0a0a0;}.cls-2{fill:none;}.cls-2,.cls-3,.cls-4,.cls-5,.cls-6,.cls-7,.cls-8{stroke:#000;stroke-width:2.31px;}.cls-2,.cls-3,.cls-5,.cls-6,.cls-7,.cls-8{stroke-linecap:round;stroke-linejoin:round;}.cls-3{fill:#ffc328;}.cls-4{fill:#b1eaf2;stroke-miterlimit:10;}.cls-5{fill:#455a64;}.cls-6{fill:#bdbdbd;}.cls-7{fill:#f75632;}</style></defs><g id="Layer_2" data-name="Layer 2"><g id="Layer_1-2" data-name="Layer 1"><rect class="cls-1" x="4.82" y="1.15" width="74.89" height="19.46" rx="3.3"/><path class="cls-1" d="M7.19,55h70.1a2.59,2.59,0,0,1,2.59,2.59v9.71a0,0,0,0,1,0,0H4.59a0,0,0,0,1,0,0V57.62A2.59,2.59,0,0,1,7.19,55Z"/><path class="cls-2" d="M19,1.15H76.41a3.29,3.29,0,0,1,3.29,3.3V17.32a3.29,3.29,0,0,1-3.29,3.3H8.12a3.3,3.3,0,0,1-3.3-3.3V4.45a3.3,3.3,0,0,1,3.3-3.3h4.55"/><path class="cls-2" d="M7.19,55h70.1a2.59,2.59,0,0,1,2.59,2.59v9.71a0,0,0,0,1,0,0H4.59a0,0,0,0,1,0,0V57.62A2.59,2.59,0,0,1,7.19,55Z"/><rect class="cls-3" x="11.39" y="7.63" width="20.36" height="7" rx="3.5"/><rect class="cls-3" x="52.99" y="7.63" width="20.36" height="7" rx="3.5"/><circle class="cls-4" cx="42.11" cy="11.08" r="5.19"/><polyline class="cls-5" points="11.39 27.09 11.39 20.62 72.89 20.62 72.89 55.03 11.39 55.03 11.39 34.85"/><path class="cls-6" d="M32.8,20.62H51a0,0,0,0,1,0,0v3.67a1.9,1.9,0,0,1-1.9,1.9H34.7a1.9,1.9,0,0,1-1.9-1.9V20.62A0,0,0,0,1,32.8,20.62Z"/><path class="cls-6" d="M34.7,26.19H49.35a0,0,0,0,1,0,0v8.26a1.92,1.92,0,0,1-1.92,1.92H36.62a1.92,1.92,0,0,1-1.92-1.92V26.19A0,0,0,0,1,34.7,26.19Z"/><path class="cls-3" d="M34.7,28v5H28.39a2.15,2.15,0,0,1-2.15-2.15v-.74A2.09,2.09,0,0,1,28.33,28Z"/><path class="cls-7" d="M16.06,34.57H8.77A3.75,3.75,0,0,1,5,30.83H5a3.75,3.75,0,0,1,3.74-3.74h20V28h-.4a2.1,2.1,0,0,0-2.09,2.09v.74A2.15,2.15,0,0,0,28.39,33h.34v1.59h-5"/><path class="cls-8" d="M67.38,72.85H3.91a2.77,2.77,0,0,1-2.76-2.76h0a2.77,2.77,0,0,1,2.76-2.76H80.68a2.77,2.77,0,0,1,2.76,2.76h0a2.77,2.77,0,0,1-2.76,2.76H75.12"/></g></g></svg>