<svg xmlns="http://www.w3.org/2000/svg" viewBox="0 0 84.74 84.74"><defs><style>.cls-1{fill:#b2b6bb;}.cls-2,.cls-7{fill:none;stroke-linecap:round;}.cls-2,.cls-7,.cls-8{stroke:#000;stroke-width:2.5px;}.cls-2,.cls-8{stroke-miterlimit:10;}.cls-3{fill:#faf8ed;}.cls-4{fill:#603813;}.cls-5{fill:#f19846;}.cls-6,.cls-8{fill:#40a340;}.cls-7{stroke-linejoin:round;}</style></defs><g id="Layer_2" data-name="Layer 2"><g id="Layer_1-2" data-name="Layer 1"><circle class="cls-1" cx="42.37" cy="42.37" r="41.12"/><path class="cls-2" d="M66.82,9.3A40.93,40.93,0,1,1,49.37,1.84"/><circle class="cls-3" cx="42.37" cy="42.37" r="26.97"/><path class="cls-2" d="M66.08,29.51a27,27,0,0,1-8.4,35.07"/><path class="cls-4" d="M62.19,40.7c-9.81,15.28,4,29.43-17.7,33.65C31.25,76.92,18.66,62,20.76,42.63c1.89-17.42,10.62-31.72,23.73-31.72S72.09,25.28,62.19,40.7Z"/><line class="cls-2" x1="41.01" y1="17.75" x2="59.2" y2="35.94"/><line class="cls-2" x1="30.78" y1="24.86" x2="53.52" y2="47.6"/><line class="cls-2" x1="24.38" y1="35.09" x2="51.17" y2="61.88"/><line class="cls-2" x1="25.09" y1="53.14" x2="40.8" y2="68.84"/><line class="cls-2" x1="25.24" y1="56.12" x2="57.85" y2="23.51"/><line class="cls-2" x1="25.24" y1="39.21" x2="46.2" y2="18.25"/><line class="cls-2" x1="33.76" y1="64.94" x2="54.02" y2="44.68"/><circle class="cls-5" cx="18.91" cy="21.51" r="6.12"/><circle class="cls-2" cx="18.91" cy="21.51" r="6.12"/><circle class="cls-5" cx="13.16" cy="33.46" r="6.12"/><path class="cls-2" d="M7,33.46a6.12,6.12,0,1,1,6.12,6.11"/><path class="cls-6" d="M31.77,18.32S16.71,20.45,15.43,2.26c0,0,15.92,0,16.34,16.06"/><path class="cls-7" d="M29,18.34C24.57,18,16.36,15.48,15.43,2.26c0,0,14,0,16.09,13.23"/><path class="cls-2" d="M58,55.85c-.35,8.76.61,15.75-13.55,18.5C31.25,76.92,18.66,62,20.76,42.63c1.89-17.42,10.62-31.72,23.73-31.72s27.6,14.37,17.7,29.79a23.89,23.89,0,0,0-1.87,3.5"/><circle class="cls-8" cx="15.45" cy="45.07" r="2.91"/><circle class="cls-8" cx="10.24" cy="49.58" r="2.91"/><circle class="cls-8" cx="15.71" cy="54.81" r="2.91"/></g></g></svg>