<svg xmlns="http://www.w3.org/2000/svg" viewBox="0 0 78.32 84.77"><defs><style>.cls-1{fill:#b3fff8;}.cls-2,.cls-4{fill:#ffdf46;}.cls-3{fill:#f80;}.cls-3,.cls-4,.cls-5{stroke:#000;stroke-width:2.88px;}.cls-3,.cls-5{stroke-linecap:round;stroke-linejoin:round;}.cls-4{stroke-miterlimit:10;}.cls-5{fill:none;}</style></defs><g id="Layer_2" data-name="Layer 2"><g id="Layer_1-2" data-name="Layer 1"><rect class="cls-1" x="37.2" y="12.29" width="30.26" height="14.29"/><path class="cls-2" d="M44.16,76.87c-7.24,8.72-21.77,8.6-32.46-.28C1.91,68.46-1.25,55.8,3.86,47a4.63,4.63,0,1,1,6.65-6.41c7.77-4.21,18.83-2.73,27.41,4.4C48.61,53.89,51.4,68.16,44.16,76.87Z"/><path class="cls-3" d="M66,13.51,58.63,5.57A10.86,10.86,0,0,1,73.45,21.46h0Z"/><path class="cls-4" d="M66,13.51,61.76,8.92a6.28,6.28,0,1,1,8.56,9.18h0Z"/><rect class="cls-2" x="37.2" y="26.59" width="30.26" height="56.73"/><rect class="cls-5" x="37.2" y="12.29" width="30.26" height="71.03"/><line class="cls-5" x1="37.2" y1="26.59" x2="60.55" y2="26.59"/><circle cx="46.45" cy="43.46" r="1.79"/><circle cx="24.81" cy="56.26" r="1.79"/><circle cx="14.31" cy="57.89" r="1.79"/><circle cx="19.04" cy="65.74" r="1.79"/><circle cx="53.2" cy="38.1" r="1.79"/><circle cx="46.98" cy="35.12" r="1.79"/><circle cx="58.63" cy="49.09" r="1.79"/><circle cx="53.8" cy="44.82" r="1.79"/><path class="cls-5" d="M3.79,66.45C.71,59.85.59,52.64,3.86,47a4.63,4.63,0,1,1,6.65-6.41c6-3.27,14.05-3.11,21.35.47"/><path class="cls-5" d="M36.64,82.1c-7.53,2.74-17.23.89-24.94-5.51a30.86,30.86,0,0,1-5.13-5.44"/><polyline class="cls-5" points="37.2 1.44 48.19 5.28 48.19 26.59"/></g></g></svg>